0
SECTION
2
HEADER
9
$ACADVER
1
AC1009
9
$INSUNITS
70
4
0
ENDSEC
0
SECTION
2
ENTITIES
0
CIRCLE
8
0
62
7
10
0.0
20
0.0
30
0.0
40
57.5
0
POLYLINE
8
0
62
7
66
1
70
1
0
VERTEX
8
0
62
7
10
40.0
20
-6.25
30
0.0
0
VERTEX
8
0
62
7
10
52.5
20
-6.25
30
0.0
0
VERTEX
8
0
62
7
10
52.5
20
6.25
30
0.0
0
VERTEX
8
0
62
7
10
40.0
20
6.25
30
0.0
0
SEQEND
0
POLYLINE
8
0
62
7
66
1
70
1
0
VERTEX
8
0
62
7
10
-52.5
20
-6.25
30
0.0
0
VERTEX
8
0
62
7
10
-40.0
20
-6.25
30
0.0
0
VERTEX
8
0
62
7
10
-40.0
20
6.25
30
0.0
0
VERTEX
8
0
62
7
10
-52.5
20
6.25
30
0.0
0
SEQEND
0
ENDSEC
0
EOF
