0
SECTION
2
HEADER
9
$ACADVER
1
AC1009
9
$INSUNITS
70
4
0
ENDSEC
0
SECTION
2
ENTITIES
0
POLYLINE
8
0
62
7
66
1
70
1
0
VERTEX
8
0
62
7
10
72.0
20
-75.0
30
0.0
42
0.41421356237309503
0
VERTEX
8
0
62
7
10
75.0
20
-72.0
30
0.0
0
VERTEX
8
0
62
7
10
75.0
20
72.0
30
0.0
42
0.41421356237309503
0
VERTEX
8
0
62
7
10
72.0
20
75.0
30
0.0
0
VERTEX
8
0
62
7
10
-72.0
20
75.0
30
0.0
42
0.41421356237309503
0
VERTEX
8
0
62
7
10
-75.0
20
72.0
30
0.0
0
VERTEX
8
0
62
7
10
-75.0
20
-72.0
30
0.0
42
0.41421356237309503
0
VERTEX
8
0
62
7
10
-72.0
20
-75.0
30
0.0
0
SEQEND
0
CIRCLE
8
0
62
7
10
0
20
0
30
0.0
40
25.0
0
POLYLINE
8
0
62
7
66
1
70
1
0
VERTEX
8
0
62
7
10
40.0
20
-6.25
30
0.0
0
VERTEX
8
0
62
7
10
52.5
20
-6.25
30
0.0
0
VERTEX
8
0
62
7
10
52.5
20
6.25
30
0.0
0
VERTEX
8
0
62
7
10
40.0
20
6.25
30
0.0
0
SEQEND
0
POLYLINE
8
0
62
7
66
1
70
1
0
VERTEX
8
0
62
7
10
-52.5
20
-6.25
30
0.0
0
VERTEX
8
0
62
7
10
-40.0
20
-6.25
30
0.0
0
VERTEX
8
0
62
7
10
-40.0
20
6.25
30
0.0
0
VERTEX
8
0
62
7
10
-52.5
20
6.25
30
0.0
0
SEQEND
0
CIRCLE
8
0
62
7
10
60.0
20
60.0
30
0.0
40
2.5
0
CIRCLE
8
0
62
7
10
60.0
20
-60.0
30
0.0
40
2.5
0
CIRCLE
8
0
62
7
10
-60.0
20
60.0
30
0.0
40
2.5
0
CIRCLE
8
0
62
7
10
-60.0
20
-60.0
30
0.0
40
2.5
0
ENDSEC
0
EOF
